<mxfile host="Electron" modified="2024-03-27T12:33:44.174Z" agent="Mozilla/5.0 (Windows NT 10.0; Win64; x64) AppleWebKit/537.36 (KHTML, like Gecko) draw.io/24.0.4 Chrome/120.0.6099.109 Electron/28.1.0 Safari/537.36" etag="hcK8qZdhfvYoxQxG3v2I" version="24.0.4" type="device" pages="2">
  <diagram name="SPL" id="fMzfrajnraMI6Oj8f3dA">
    <mxGraphModel dx="883" dy="512" grid="1" gridSize="10" guides="1" tooltips="1" connect="1" arrows="1" fold="1" page="1" pageScale="1" pageWidth="850" pageHeight="1100" math="0" shadow="0">
      <root>
        <mxCell id="0" />
        <mxCell id="1" parent="0" />
        <mxCell id="QSfzEJtNpgtJ8inx0W-n-1" value="SPL" style="rounded=0;whiteSpace=wrap;html=1;" vertex="1" parent="1">
          <mxGeometry x="80" y="80" width="80" height="40" as="geometry" />
        </mxCell>
        <mxCell id="QSfzEJtNpgtJ8inx0W-n-2" value="Component" style="rounded=0;whiteSpace=wrap;html=1;" vertex="1" parent="1">
          <mxGeometry x="280" y="200" width="80" height="40" as="geometry" />
        </mxCell>
        <mxCell id="QSfzEJtNpgtJ8inx0W-n-3" value="Variant" style="rounded=0;whiteSpace=wrap;html=1;" vertex="1" parent="1">
          <mxGeometry x="280" y="80" width="80" height="40" as="geometry" />
        </mxCell>
        <mxCell id="QSfzEJtNpgtJ8inx0W-n-4" value="Feature Model" style="rounded=0;whiteSpace=wrap;html=1;" vertex="1" parent="1">
          <mxGeometry x="80" y="200" width="80" height="40" as="geometry" />
        </mxCell>
        <mxCell id="QSfzEJtNpgtJ8inx0W-n-8" value="" style="endArrow=classic;html=1;rounded=0;entryX=1;entryY=0.5;entryDx=0;entryDy=0;exitX=0.371;exitY=1.008;exitDx=0;exitDy=0;exitPerimeter=0;" edge="1" parent="1" source="QSfzEJtNpgtJ8inx0W-n-27" target="QSfzEJtNpgtJ8inx0W-n-2">
          <mxGeometry width="50" height="50" relative="1" as="geometry">
            <mxPoint x="470" y="160" as="sourcePoint" />
            <mxPoint x="320" y="210" as="targetPoint" />
            <Array as="points">
              <mxPoint x="510" y="220" />
              <mxPoint x="470" y="220" />
            </Array>
          </mxGeometry>
        </mxCell>
        <mxCell id="QSfzEJtNpgtJ8inx0W-n-9" value="configures" style="edgeLabel;html=1;align=center;verticalAlign=middle;resizable=0;points=[];" vertex="1" connectable="0" parent="QSfzEJtNpgtJ8inx0W-n-8">
          <mxGeometry x="0.0071" y="-2" relative="1" as="geometry">
            <mxPoint x="-34" y="-8" as="offset" />
          </mxGeometry>
        </mxCell>
        <mxCell id="QSfzEJtNpgtJ8inx0W-n-15" value="" style="endArrow=block;endFill=1;html=1;edgeStyle=orthogonalEdgeStyle;align=left;verticalAlign=top;rounded=0;" edge="1" parent="1">
          <mxGeometry x="-0.375" y="30" relative="1" as="geometry">
            <mxPoint x="160" y="90" as="sourcePoint" />
            <mxPoint x="280" y="90" as="targetPoint" />
            <mxPoint as="offset" />
          </mxGeometry>
        </mxCell>
        <mxCell id="QSfzEJtNpgtJ8inx0W-n-16" value="1" style="edgeLabel;resizable=0;html=1;align=left;verticalAlign=bottom;" connectable="0" vertex="1" parent="QSfzEJtNpgtJ8inx0W-n-15">
          <mxGeometry x="-1" relative="1" as="geometry">
            <mxPoint x="10" as="offset" />
          </mxGeometry>
        </mxCell>
        <mxCell id="QSfzEJtNpgtJ8inx0W-n-17" value="n" style="edgeLabel;html=1;align=center;verticalAlign=middle;resizable=0;points=[];" vertex="1" connectable="0" parent="QSfzEJtNpgtJ8inx0W-n-15">
          <mxGeometry x="0.6619" y="2" relative="1" as="geometry">
            <mxPoint x="7" y="-8" as="offset" />
          </mxGeometry>
        </mxCell>
        <mxCell id="QSfzEJtNpgtJ8inx0W-n-21" value="" style="endArrow=block;endFill=1;html=1;edgeStyle=orthogonalEdgeStyle;align=left;verticalAlign=top;rounded=0;exitX=0.5;exitY=1;exitDx=0;exitDy=0;entryX=0.5;entryY=0;entryDx=0;entryDy=0;" edge="1" parent="1" source="QSfzEJtNpgtJ8inx0W-n-1" target="QSfzEJtNpgtJ8inx0W-n-4">
          <mxGeometry x="-0.1829" y="10" relative="1" as="geometry">
            <mxPoint x="350" y="290" as="sourcePoint" />
            <mxPoint x="510" y="290" as="targetPoint" />
            <mxPoint as="offset" />
          </mxGeometry>
        </mxCell>
        <mxCell id="QSfzEJtNpgtJ8inx0W-n-22" value="1" style="edgeLabel;resizable=0;html=1;align=left;verticalAlign=bottom;" connectable="0" vertex="1" parent="QSfzEJtNpgtJ8inx0W-n-21">
          <mxGeometry x="-1" relative="1" as="geometry">
            <mxPoint x="-10" y="20" as="offset" />
          </mxGeometry>
        </mxCell>
        <mxCell id="QSfzEJtNpgtJ8inx0W-n-23" value="1" style="edgeLabel;html=1;align=center;verticalAlign=middle;resizable=0;points=[];" vertex="1" connectable="0" parent="QSfzEJtNpgtJ8inx0W-n-21">
          <mxGeometry x="0.6984" y="-1" relative="1" as="geometry">
            <mxPoint x="-8" as="offset" />
          </mxGeometry>
        </mxCell>
        <mxCell id="QSfzEJtNpgtJ8inx0W-n-24" value="" style="endArrow=block;endFill=1;html=1;edgeStyle=orthogonalEdgeStyle;align=left;verticalAlign=top;rounded=0;entryX=0;entryY=0.5;entryDx=0;entryDy=0;exitX=1;exitY=0.75;exitDx=0;exitDy=0;" edge="1" parent="1" source="QSfzEJtNpgtJ8inx0W-n-1" target="QSfzEJtNpgtJ8inx0W-n-2">
          <mxGeometry x="-1" relative="1" as="geometry">
            <mxPoint x="120" y="120" as="sourcePoint" />
            <mxPoint x="260" y="170" as="targetPoint" />
          </mxGeometry>
        </mxCell>
        <mxCell id="QSfzEJtNpgtJ8inx0W-n-25" value="1" style="edgeLabel;resizable=0;html=1;align=left;verticalAlign=bottom;" connectable="0" vertex="1" parent="QSfzEJtNpgtJ8inx0W-n-24">
          <mxGeometry x="-1" relative="1" as="geometry" />
        </mxCell>
        <mxCell id="QSfzEJtNpgtJ8inx0W-n-26" value="n" style="text;html=1;align=center;verticalAlign=middle;resizable=0;points=[];autosize=1;strokeColor=none;fillColor=none;" vertex="1" parent="1">
          <mxGeometry x="250" y="183" width="30" height="30" as="geometry" />
        </mxCell>
        <mxCell id="QSfzEJtNpgtJ8inx0W-n-27" value="Configuration" style="html=1;whiteSpace=wrap;" vertex="1" parent="1">
          <mxGeometry x="480" y="80" width="80" height="40" as="geometry" />
        </mxCell>
        <mxCell id="QSfzEJtNpgtJ8inx0W-n-28" value="" style="endArrow=block;endFill=1;html=1;edgeStyle=orthogonalEdgeStyle;align=left;verticalAlign=top;rounded=0;exitX=1;exitY=0.5;exitDx=0;exitDy=0;entryX=0;entryY=0.5;entryDx=0;entryDy=0;" edge="1" parent="1" source="QSfzEJtNpgtJ8inx0W-n-3" target="QSfzEJtNpgtJ8inx0W-n-27">
          <mxGeometry x="-1" relative="1" as="geometry">
            <mxPoint x="210" y="170" as="sourcePoint" />
            <mxPoint x="370" y="170" as="targetPoint" />
          </mxGeometry>
        </mxCell>
        <mxCell id="QSfzEJtNpgtJ8inx0W-n-29" value="1" style="edgeLabel;resizable=0;html=1;align=left;verticalAlign=bottom;" connectable="0" vertex="1" parent="QSfzEJtNpgtJ8inx0W-n-28">
          <mxGeometry x="-1" relative="1" as="geometry">
            <mxPoint x="10" as="offset" />
          </mxGeometry>
        </mxCell>
        <mxCell id="QSfzEJtNpgtJ8inx0W-n-30" value="1" style="text;html=1;align=center;verticalAlign=middle;resizable=0;points=[];autosize=1;strokeColor=none;fillColor=none;" vertex="1" parent="1">
          <mxGeometry x="450" y="76" width="30" height="30" as="geometry" />
        </mxCell>
        <mxCell id="QSfzEJtNpgtJ8inx0W-n-31" value="" style="endArrow=block;endFill=1;html=1;edgeStyle=orthogonalEdgeStyle;align=left;verticalAlign=top;rounded=0;exitX=0.621;exitY=1.008;exitDx=0;exitDy=0;exitPerimeter=0;entryX=0.375;entryY=1.017;entryDx=0;entryDy=0;entryPerimeter=0;" edge="1" parent="1" source="QSfzEJtNpgtJ8inx0W-n-27" target="QSfzEJtNpgtJ8inx0W-n-4">
          <mxGeometry x="0.0584" y="-20" relative="1" as="geometry">
            <mxPoint x="489.99000000000007" y="183" as="sourcePoint" />
            <mxPoint x="110" y="300" as="targetPoint" />
            <Array as="points">
              <mxPoint x="530" y="380" />
              <mxPoint x="110" y="380" />
            </Array>
            <mxPoint as="offset" />
          </mxGeometry>
        </mxCell>
        <mxCell id="QSfzEJtNpgtJ8inx0W-n-33" value="Feature" style="html=1;whiteSpace=wrap;" vertex="1" parent="1">
          <mxGeometry x="280" y="320" width="80" height="40" as="geometry" />
        </mxCell>
        <mxCell id="QSfzEJtNpgtJ8inx0W-n-34" value="" style="endArrow=block;endFill=1;html=1;edgeStyle=orthogonalEdgeStyle;align=left;verticalAlign=top;rounded=0;exitX=0.5;exitY=1;exitDx=0;exitDy=0;entryX=0.5;entryY=0;entryDx=0;entryDy=0;" edge="1" parent="1" source="QSfzEJtNpgtJ8inx0W-n-2" target="QSfzEJtNpgtJ8inx0W-n-33">
          <mxGeometry x="-1" relative="1" as="geometry">
            <mxPoint x="330" y="330" as="sourcePoint" />
            <mxPoint x="490" y="330" as="targetPoint" />
            <Array as="points">
              <mxPoint x="320" y="270" />
              <mxPoint x="320" y="270" />
            </Array>
          </mxGeometry>
        </mxCell>
        <mxCell id="QSfzEJtNpgtJ8inx0W-n-35" value="n" style="edgeLabel;resizable=0;html=1;align=left;verticalAlign=bottom;" connectable="0" vertex="1" parent="QSfzEJtNpgtJ8inx0W-n-34">
          <mxGeometry x="-1" relative="1" as="geometry">
            <mxPoint x="6" y="19" as="offset" />
          </mxGeometry>
        </mxCell>
        <mxCell id="QSfzEJtNpgtJ8inx0W-n-40" value="implements" style="edgeLabel;html=1;align=center;verticalAlign=middle;resizable=0;points=[];" vertex="1" connectable="0" parent="QSfzEJtNpgtJ8inx0W-n-34">
          <mxGeometry x="-0.3973" relative="1" as="geometry">
            <mxPoint x="30" y="11" as="offset" />
          </mxGeometry>
        </mxCell>
        <mxCell id="QSfzEJtNpgtJ8inx0W-n-36" value="n" style="text;html=1;align=center;verticalAlign=middle;resizable=0;points=[];autosize=1;strokeColor=none;fillColor=none;" vertex="1" parent="1">
          <mxGeometry x="316" y="290" width="30" height="30" as="geometry" />
        </mxCell>
        <mxCell id="QSfzEJtNpgtJ8inx0W-n-37" value="" style="endArrow=block;endFill=1;html=1;edgeStyle=orthogonalEdgeStyle;align=left;verticalAlign=top;rounded=0;entryX=0;entryY=0.5;entryDx=0;entryDy=0;" edge="1" parent="1" target="QSfzEJtNpgtJ8inx0W-n-33">
          <mxGeometry x="-1" relative="1" as="geometry">
            <mxPoint x="130" y="240" as="sourcePoint" />
            <mxPoint x="255" y="460" as="targetPoint" />
            <Array as="points">
              <mxPoint x="130" y="260" />
              <mxPoint x="130" y="300" />
            </Array>
          </mxGeometry>
        </mxCell>
        <mxCell id="QSfzEJtNpgtJ8inx0W-n-38" value="1" style="edgeLabel;resizable=0;html=1;align=left;verticalAlign=bottom;" connectable="0" vertex="1" parent="QSfzEJtNpgtJ8inx0W-n-37">
          <mxGeometry x="-1" relative="1" as="geometry">
            <mxPoint y="20" as="offset" />
          </mxGeometry>
        </mxCell>
        <mxCell id="QSfzEJtNpgtJ8inx0W-n-39" value="n" style="text;html=1;align=center;verticalAlign=middle;resizable=0;points=[];autosize=1;strokeColor=none;fillColor=none;" vertex="1" parent="1">
          <mxGeometry x="249" y="312" width="30" height="30" as="geometry" />
        </mxCell>
        <mxCell id="QSfzEJtNpgtJ8inx0W-n-41" value="" style="endArrow=block;endFill=1;html=1;edgeStyle=orthogonalEdgeStyle;align=left;verticalAlign=top;rounded=0;exitX=0.5;exitY=1;exitDx=0;exitDy=0;entryX=0.5;entryY=0;entryDx=0;entryDy=0;" edge="1" parent="1" source="QSfzEJtNpgtJ8inx0W-n-3" target="QSfzEJtNpgtJ8inx0W-n-2">
          <mxGeometry x="-0.375" y="30" relative="1" as="geometry">
            <mxPoint x="360" y="170" as="sourcePoint" />
            <mxPoint x="520" y="170" as="targetPoint" />
            <mxPoint as="offset" />
          </mxGeometry>
        </mxCell>
        <mxCell id="QSfzEJtNpgtJ8inx0W-n-42" value="1" style="edgeLabel;resizable=0;html=1;align=left;verticalAlign=bottom;" connectable="0" vertex="1" parent="QSfzEJtNpgtJ8inx0W-n-41">
          <mxGeometry x="-1" relative="1" as="geometry">
            <mxPoint y="20" as="offset" />
          </mxGeometry>
        </mxCell>
        <mxCell id="QSfzEJtNpgtJ8inx0W-n-43" value="n" style="edgeLabel;html=1;align=center;verticalAlign=middle;resizable=0;points=[];" vertex="1" connectable="0" parent="QSfzEJtNpgtJ8inx0W-n-41">
          <mxGeometry x="0.6619" y="2" relative="1" as="geometry">
            <mxPoint x="4" y="-5" as="offset" />
          </mxGeometry>
        </mxCell>
        <mxCell id="eYDUc_M2US79OXZmTa2Z-1" value="&lt;span style=&quot;text-align: left;&quot;&gt;is instance of&lt;/span&gt;" style="edgeLabel;html=1;align=center;verticalAlign=middle;resizable=0;points=[];" vertex="1" connectable="0" parent="1">
          <mxGeometry x="490" y="253" as="geometry">
            <mxPoint x="-38" y="117" as="offset" />
          </mxGeometry>
        </mxCell>
      </root>
    </mxGraphModel>
  </diagram>
  <diagram id="8Z4bBGpCcYKUmyULSsdS" name="Pipeline">
    <mxGraphModel dx="691" dy="401" grid="1" gridSize="10" guides="1" tooltips="1" connect="1" arrows="1" fold="1" page="1" pageScale="1" pageWidth="850" pageHeight="1100" math="0" shadow="0">
      <root>
        <mxCell id="0" />
        <mxCell id="1" parent="0" />
        <mxCell id="Us5HgU7NeYOFsMMzCaMw-2" value="Pipeline" style="html=1;whiteSpace=wrap;" vertex="1" parent="1">
          <mxGeometry x="280" y="200" width="80" height="40" as="geometry" />
        </mxCell>
        <mxCell id="Us5HgU7NeYOFsMMzCaMw-3" value="Build" style="html=1;whiteSpace=wrap;" vertex="1" parent="1">
          <mxGeometry x="480" y="200" width="80" height="40" as="geometry" />
        </mxCell>
        <mxCell id="Us5HgU7NeYOFsMMzCaMw-4" value="Step" style="html=1;whiteSpace=wrap;" vertex="1" parent="1">
          <mxGeometry x="280" y="320" width="80" height="40" as="geometry" />
        </mxCell>
        <mxCell id="Us5HgU7NeYOFsMMzCaMw-5" value="Artifact" style="html=1;whiteSpace=wrap;" vertex="1" parent="1">
          <mxGeometry x="480" y="320" width="80" height="40" as="geometry" />
        </mxCell>
        <mxCell id="Us5HgU7NeYOFsMMzCaMw-6" value="Quality Gate" style="html=1;whiteSpace=wrap;" vertex="1" parent="1">
          <mxGeometry x="80" y="200" width="80" height="40" as="geometry" />
        </mxCell>
        <mxCell id="Us5HgU7NeYOFsMMzCaMw-7" value="" style="endArrow=block;endFill=1;html=1;edgeStyle=orthogonalEdgeStyle;align=left;verticalAlign=top;rounded=0;entryX=0;entryY=0.5;entryDx=0;entryDy=0;exitX=1;exitY=0.5;exitDx=0;exitDy=0;" edge="1" parent="1" source="Us5HgU7NeYOFsMMzCaMw-4" target="Us5HgU7NeYOFsMMzCaMw-5">
          <mxGeometry x="-0.3333" y="20" relative="1" as="geometry">
            <mxPoint x="430" y="366.76" as="sourcePoint" />
            <mxPoint x="590" y="366.76" as="targetPoint" />
            <mxPoint as="offset" />
          </mxGeometry>
        </mxCell>
        <mxCell id="Us5HgU7NeYOFsMMzCaMw-8" value="1" style="edgeLabel;resizable=0;html=1;align=left;verticalAlign=bottom;" connectable="0" vertex="1" parent="Us5HgU7NeYOFsMMzCaMw-7">
          <mxGeometry x="-1" relative="1" as="geometry">
            <mxPoint x="5" y="-2" as="offset" />
          </mxGeometry>
        </mxCell>
        <mxCell id="Us5HgU7NeYOFsMMzCaMw-9" value="n" style="text;html=1;align=center;verticalAlign=middle;resizable=0;points=[];autosize=1;strokeColor=none;fillColor=none;" vertex="1" parent="1">
          <mxGeometry x="450" y="313" width="30" height="30" as="geometry" />
        </mxCell>
        <mxCell id="Us5HgU7NeYOFsMMzCaMw-10" value="" style="endArrow=block;endFill=1;html=1;edgeStyle=orthogonalEdgeStyle;align=left;verticalAlign=top;rounded=0;exitX=0.5;exitY=1;exitDx=0;exitDy=0;entryX=0.5;entryY=0;entryDx=0;entryDy=0;" edge="1" parent="1" source="Us5HgU7NeYOFsMMzCaMw-2" target="Us5HgU7NeYOFsMMzCaMw-4">
          <mxGeometry x="-1" relative="1" as="geometry">
            <mxPoint x="250" y="330" as="sourcePoint" />
            <mxPoint x="410" y="330" as="targetPoint" />
          </mxGeometry>
        </mxCell>
        <mxCell id="Us5HgU7NeYOFsMMzCaMw-11" value="1" style="edgeLabel;resizable=0;html=1;align=left;verticalAlign=bottom;" connectable="0" vertex="1" parent="Us5HgU7NeYOFsMMzCaMw-10">
          <mxGeometry x="-1" relative="1" as="geometry">
            <mxPoint x="10" y="20" as="offset" />
          </mxGeometry>
        </mxCell>
        <mxCell id="Us5HgU7NeYOFsMMzCaMw-12" value="n" style="text;html=1;align=center;verticalAlign=middle;resizable=0;points=[];autosize=1;strokeColor=none;fillColor=none;" vertex="1" parent="1">
          <mxGeometry x="320" y="290" width="30" height="30" as="geometry" />
        </mxCell>
        <mxCell id="Us5HgU7NeYOFsMMzCaMw-15" value="" style="endArrow=block;endFill=1;html=1;edgeStyle=orthogonalEdgeStyle;align=left;verticalAlign=top;rounded=0;exitX=0;exitY=0.5;exitDx=0;exitDy=0;entryX=1;entryY=0.5;entryDx=0;entryDy=0;" edge="1" parent="1" source="Us5HgU7NeYOFsMMzCaMw-3" target="Us5HgU7NeYOFsMMzCaMw-2">
          <mxGeometry x="0.7004" y="20" relative="1" as="geometry">
            <mxPoint x="400" y="219.76" as="sourcePoint" />
            <mxPoint x="430" y="290" as="targetPoint" />
            <mxPoint as="offset" />
          </mxGeometry>
        </mxCell>
        <mxCell id="JiutGqgw0liV5zS_JeZ3-3" value="" style="endArrow=block;endFill=1;html=1;edgeStyle=orthogonalEdgeStyle;align=left;verticalAlign=top;rounded=0;exitX=0;exitY=0.5;exitDx=0;exitDy=0;entryX=1;entryY=0.5;entryDx=0;entryDy=0;" edge="1" parent="1" source="Us5HgU7NeYOFsMMzCaMw-2" target="Us5HgU7NeYOFsMMzCaMw-6">
          <mxGeometry x="0.8333" y="-30" relative="1" as="geometry">
            <mxPoint x="250" y="330" as="sourcePoint" />
            <mxPoint x="410" y="330" as="targetPoint" />
            <mxPoint as="offset" />
          </mxGeometry>
        </mxCell>
        <mxCell id="JiutGqgw0liV5zS_JeZ3-4" value="1" style="edgeLabel;resizable=0;html=1;align=left;verticalAlign=bottom;" connectable="0" vertex="1" parent="JiutGqgw0liV5zS_JeZ3-3">
          <mxGeometry x="-1" relative="1" as="geometry">
            <mxPoint x="-20" as="offset" />
          </mxGeometry>
        </mxCell>
        <mxCell id="JiutGqgw0liV5zS_JeZ3-5" value="Quality Criteria" style="html=1;whiteSpace=wrap;" vertex="1" parent="1">
          <mxGeometry x="80" y="320" width="80" height="40" as="geometry" />
        </mxCell>
        <mxCell id="JiutGqgw0liV5zS_JeZ3-6" value="n" style="endArrow=block;endFill=1;html=1;edgeStyle=orthogonalEdgeStyle;align=left;verticalAlign=top;rounded=0;exitX=0.5;exitY=1;exitDx=0;exitDy=0;entryX=0.5;entryY=0;entryDx=0;entryDy=0;" edge="1" parent="1" source="Us5HgU7NeYOFsMMzCaMw-6" target="JiutGqgw0liV5zS_JeZ3-5">
          <mxGeometry x="0.25" relative="1" as="geometry">
            <mxPoint x="250" y="330" as="sourcePoint" />
            <mxPoint x="410" y="330" as="targetPoint" />
            <mxPoint as="offset" />
          </mxGeometry>
        </mxCell>
        <mxCell id="JiutGqgw0liV5zS_JeZ3-7" value="1" style="edgeLabel;resizable=0;html=1;align=left;verticalAlign=bottom;" connectable="0" vertex="1" parent="JiutGqgw0liV5zS_JeZ3-6">
          <mxGeometry x="-1" relative="1" as="geometry">
            <mxPoint y="20" as="offset" />
          </mxGeometry>
        </mxCell>
        <mxCell id="JiutGqgw0liV5zS_JeZ3-8" value="SPL" style="html=1;whiteSpace=wrap;" vertex="1" parent="1">
          <mxGeometry x="480" y="80" width="80" height="40" as="geometry" />
        </mxCell>
        <mxCell id="JiutGqgw0liV5zS_JeZ3-9" value="Branch" style="html=1;whiteSpace=wrap;" vertex="1" parent="1">
          <mxGeometry x="80" y="80" width="80" height="40" as="geometry" />
        </mxCell>
        <mxCell id="JiutGqgw0liV5zS_JeZ3-10" value="" style="endArrow=block;endFill=1;html=1;edgeStyle=orthogonalEdgeStyle;align=left;verticalAlign=top;rounded=0;exitX=0;exitY=0.5;exitDx=0;exitDy=0;entryX=1;entryY=0.5;entryDx=0;entryDy=0;" edge="1" parent="1">
          <mxGeometry x="0.1667" y="-10" relative="1" as="geometry">
            <mxPoint x="480" y="100" as="sourcePoint" />
            <mxPoint x="360" y="100" as="targetPoint" />
            <mxPoint as="offset" />
          </mxGeometry>
        </mxCell>
        <mxCell id="JiutGqgw0liV5zS_JeZ3-12" value="Repository" style="html=1;whiteSpace=wrap;" vertex="1" parent="1">
          <mxGeometry x="280" y="80" width="80" height="40" as="geometry" />
        </mxCell>
        <mxCell id="JiutGqgw0liV5zS_JeZ3-13" value="" style="endArrow=block;endFill=1;html=1;edgeStyle=orthogonalEdgeStyle;align=left;verticalAlign=top;rounded=0;exitX=0;exitY=0.5;exitDx=0;exitDy=0;entryX=1;entryY=0.5;entryDx=0;entryDy=0;" edge="1" parent="1" source="JiutGqgw0liV5zS_JeZ3-12" target="JiutGqgw0liV5zS_JeZ3-9">
          <mxGeometry x="1" y="-20" relative="1" as="geometry">
            <mxPoint x="250" y="10" as="sourcePoint" />
            <mxPoint x="410" y="10" as="targetPoint" />
            <mxPoint as="offset" />
          </mxGeometry>
        </mxCell>
        <mxCell id="JiutGqgw0liV5zS_JeZ3-14" value="1" style="edgeLabel;resizable=0;html=1;align=left;verticalAlign=bottom;" connectable="0" vertex="1" parent="JiutGqgw0liV5zS_JeZ3-13">
          <mxGeometry x="-1" relative="1" as="geometry">
            <mxPoint x="-20" as="offset" />
          </mxGeometry>
        </mxCell>
        <mxCell id="JiutGqgw0liV5zS_JeZ3-15" value="protects" style="endArrow=block;endFill=1;html=1;edgeStyle=orthogonalEdgeStyle;align=left;verticalAlign=top;rounded=0;entryX=0.5;entryY=1;entryDx=0;entryDy=0;exitX=0.5;exitY=0;exitDx=0;exitDy=0;" edge="1" parent="1" source="Us5HgU7NeYOFsMMzCaMw-6" target="JiutGqgw0liV5zS_JeZ3-9">
          <mxGeometry x="0.25" relative="1" as="geometry">
            <mxPoint x="120" y="170" as="sourcePoint" />
            <mxPoint x="410" y="-30" as="targetPoint" />
            <mxPoint as="offset" />
          </mxGeometry>
        </mxCell>
        <mxCell id="1QGB5cANgYucNyzRk7Gj-2" value="1" style="edgeLabel;resizable=0;html=1;align=left;verticalAlign=bottom;" connectable="0" vertex="1" parent="1">
          <mxGeometry x="170" y="220" as="geometry" />
        </mxCell>
        <mxCell id="1QGB5cANgYucNyzRk7Gj-3" value="n" style="edgeLabel;resizable=0;html=1;align=left;verticalAlign=bottom;" connectable="0" vertex="1" parent="1">
          <mxGeometry x="170" y="100" as="geometry" />
        </mxCell>
        <mxCell id="1QGB5cANgYucNyzRk7Gj-4" value="is" style="text;html=1;align=center;verticalAlign=middle;resizable=0;points=[];autosize=1;strokeColor=none;fillColor=none;" vertex="1" parent="1">
          <mxGeometry x="405" y="76" width="30" height="30" as="geometry" />
        </mxCell>
        <mxCell id="1QGB5cANgYucNyzRk7Gj-7" value="is instance of" style="text;html=1;align=center;verticalAlign=middle;resizable=0;points=[];autosize=1;strokeColor=none;fillColor=none;" vertex="1" parent="1">
          <mxGeometry x="375" y="197" width="90" height="30" as="geometry" />
        </mxCell>
        <mxCell id="1QGB5cANgYucNyzRk7Gj-8" value="creates" style="text;html=1;align=center;verticalAlign=middle;resizable=0;points=[];autosize=1;strokeColor=none;fillColor=none;" vertex="1" parent="1">
          <mxGeometry x="389" y="316" width="60" height="30" as="geometry" />
        </mxCell>
      </root>
    </mxGraphModel>
  </diagram>
</mxfile>
